<?xml version="1.0" standalone="no"?>
<!DOCTYPE svg PUBLIC "-//W3C//DTD SVG 20010904//EN"
 "http://www.w3.org/TR/2001/REC-SVG-20010904/DTD/svg10.dtd">
<svg version="1.0" xmlns="http://www.w3.org/2000/svg"
 width="260.000000pt" height="260.000000pt" viewBox="0 0 260.000000 260.000000"
 preserveAspectRatio="xMidYMid meet">
<metadata>
Created by potrace 1.11, written by Peter Selinger 2001-2013
</metadata>
<g transform="translate(0.000000,260.000000) scale(0.100000,-0.100000)"
fill="#000000" stroke="none">
<path d="M0 1300 l0 -1300 1300 0 1300 0 0 1300 0 1300 -1300 0 -1300 0 0
-1300z m1077 520 c98 -43 153 -130 172 -273 6 -43 11 -233 11 -423 l0 -344
-134 0 -134 0 -4 343 c-3 342 -3 342 -28 391 -44 87 -104 111 -203 82 -67 -19
-155 -95 -186 -159 -20 -41 -21 -60 -21 -350 l0 -307 -135 0 -135 0 0 525 0
525 125 0 125 0 0 -92 0 -92 25 35 c101 137 366 208 522 139z m916 15 c82 -14
200 -65 251 -107 l28 -24 -51 -77 c-29 -42 -55 -77 -58 -77 -3 0 -31 15 -62
34 -187 113 -401 91 -401 -41 0 -52 41 -87 131 -113 301 -88 336 -102 403
-161 60 -53 80 -107 74 -201 -6 -85 -30 -139 -85 -193 -106 -104 -292 -139
-501 -95 -101 20 -243 83 -282 125 l-22 23 48 80 48 80 35 -23 c147 -92 293
-131 400 -105 68 16 101 50 101 104 -1 73 -17 83 -254 155 -185 57 -228 76
-280 122 -99 87 -82 285 35 394 106 99 257 133 442 100z"/>
</g>
</svg>
